<svg width="76" height="18" viewBox="0 0 76 18" fill="none" xmlns="http://www.w3.org/2000/svg">
<rect width="76" height="18" fill="white"/>
<path d="M1.98094 6.04C1.86094 6.04 1.7476 6.05333 1.64094 6.08C1.53427 6.09333 1.4276 6.1 1.32094 6.1C1.17427 6.1 1.03427 6.03333 0.900938 5.9C0.780938 5.76667 0.720938 5.64667 0.720938 5.54C0.720938 5.19333 0.894271 4.92667 1.24094 4.74C1.5876 4.54 1.94094 4.44 2.30094 4.44C2.6076 4.44 2.92094 4.54667 3.24094 4.76C3.57427 4.96 3.82094 5.22 3.98094 5.54C4.3276 5.12667 4.75427 4.82667 5.26094 4.64C5.7676 4.45333 6.29427 4.36 6.84094 4.36C7.45427 4.36 8.02094 4.55333 8.54094 4.94C9.07427 5.32667 9.49427 5.82 9.80094 6.42C10.1076 7.00667 10.2609 7.59333 10.2609 8.18C10.2609 8.75333 10.2009 9.26667 10.0809 9.72C9.96094 10.16 9.7476 10.6067 9.44094 11.06C9.09427 11.54 8.6276 11.9333 8.04094 12.24C7.4676 12.5467 6.78094 12.7 5.98094 12.7C5.7676 12.7 5.5076 12.6467 5.20094 12.54C4.89427 12.42 4.64094 12.2933 4.44094 12.16C4.3476 13.0667 4.30094 13.8533 4.30094 14.52C4.30094 14.92 4.32094 15.3 4.36094 15.66C4.3876 16.0867 4.40094 16.3933 4.40094 16.58C4.40094 16.8733 4.30094 17.0867 4.10094 17.22C3.90094 17.3667 3.68094 17.44 3.44094 17.44C2.96094 17.44 2.64094 17.3067 2.48094 17.04C2.33427 16.7867 2.26094 16.42 2.26094 15.94C2.31427 14.7933 2.38094 13.7333 2.46094 12.76C2.54094 11.56 2.58094 9.70667 2.58094 7.2C2.58094 6.96 2.53427 6.70667 2.44094 6.44C2.3476 6.17333 2.19427 6.04 1.98094 6.04ZM4.52094 10.18C4.5876 10.4333 4.77427 10.6467 5.08094 10.82C5.40094 10.98 5.6876 11.06 5.94094 11.06C6.70094 11.06 7.2676 10.8533 7.64094 10.44C7.92094 10.1467 8.10094 9.86 8.18094 9.58C8.27427 9.3 8.32094 8.85333 8.32094 8.24C8.32094 7.76 8.2276 7.36 8.04094 7.04C7.85427 6.70667 7.6276 6.46667 7.36094 6.32C7.09427 6.16 6.84094 6.08 6.60094 6.08C6.05427 6.08 5.6076 6.24667 5.26094 6.58C4.9276 6.9 4.71427 7.34 4.62094 7.9C4.55427 8.34 4.52094 9.1 4.52094 10.18ZM11.9469 8.76C11.9469 8.25333 12.0402 7.74667 12.2269 7.24C12.4135 6.72 12.6602 6.24667 12.9669 5.82C13.2735 5.39333 13.7602 5.04667 14.4269 4.78C15.0935 4.5 15.6869 4.36 16.2069 4.36C16.7402 4.36 17.2802 4.43333 17.8269 4.58C18.3869 4.72667 18.7735 4.95333 18.9869 5.26C19.4802 5.95333 19.7269 6.63333 19.7269 7.3C19.7269 7.66 19.6469 7.96667 19.4869 8.22C19.3402 8.47333 19.1269 8.74667 18.8469 9.04C18.6202 9.28 18.2602 9.44 17.7669 9.52C17.2869 9.6 16.8069 9.64 16.3269 9.64C16.0202 9.64 15.6469 9.61333 15.2069 9.56C14.7669 9.49333 14.3402 9.41333 13.9269 9.32C13.9535 9.58667 14.0202 9.84667 14.1269 10.1C14.2335 10.3533 14.3602 10.5467 14.5069 10.68C14.7735 10.9333 15.0469 11.0933 15.3269 11.16C15.6202 11.2267 15.9935 11.26 16.4469 11.26C16.9269 11.26 17.3735 11.18 17.7869 11.02C18.1202 10.9 18.3935 10.84 18.6069 10.84C18.8602 10.84 19.0535 10.92 19.1869 11.08C19.3202 11.2267 19.3869 11.42 19.3869 11.66C19.3869 11.9933 19.1935 12.2667 18.8069 12.48C18.4202 12.6933 17.9735 12.8533 17.4669 12.96C16.9735 13.0533 16.5735 13.1 16.2669 13.1C15.6402 13.1 15.0335 12.9867 14.4469 12.76C13.8602 12.5333 13.3735 12.2133 12.9869 11.8C12.6669 11.4267 12.4135 10.98 12.2269 10.46C12.0402 9.92667 11.9469 9.36 11.9469 8.76ZM16.3069 6.06C16.0135 6.06 15.7202 6.12 15.4269 6.24C15.1335 6.34667 14.8935 6.5 14.7069 6.7C14.4669 6.95333 14.3002 7.16 14.2069 7.32C14.1269 7.46667 14.0735 7.67333 14.0469 7.94C14.3802 8.04667 15.0735 8.1 16.1269 8.1C16.7002 8.1 17.1402 8.01333 17.4469 7.84C17.7669 7.66667 17.9269 7.44 17.9269 7.16C17.9269 6.88 17.7535 6.62667 17.4069 6.4C17.0602 6.17333 16.6935 6.06 16.3069 6.06ZM21.6381 6.04C21.4515 6.01333 21.2981 5.94 21.1781 5.82C21.0715 5.68667 21.0181 5.52667 21.0181 5.34C21.0181 5.1 21.1115 4.9 21.2981 4.74C21.3381 4.7 21.4048 4.66667 21.4981 4.64C21.5915 4.6 21.6648 4.56667 21.7181 4.54C22.0115 4.44667 22.1981 4.37333 22.2781 4.32C22.5848 4.13333 22.7915 3.82667 22.8981 3.4C23.0048 2.89333 23.0715 2.54667 23.0981 2.36C23.1248 2.06667 23.2181 1.84667 23.3781 1.7C23.5515 1.54 23.7648 1.46 24.0181 1.46C24.3515 1.46 24.5848 1.54667 24.7181 1.72C24.8515 1.89333 24.9181 2.21333 24.9181 2.68C24.9181 3.29333 24.7715 3.87333 24.4781 4.42C24.6648 4.42 24.9715 4.40667 25.3981 4.38C26.0381 4.35333 26.4848 4.34 26.7381 4.34C26.9648 4.34 27.1581 4.4 27.3181 4.52C27.4915 4.62667 27.5781 4.78667 27.5781 5C27.5781 5.50667 27.3448 5.80667 26.8781 5.9C26.4515 6.02 25.6781 6.09333 24.5581 6.12C24.4648 7.42667 24.4181 8.46 24.4181 9.22C24.4181 9.68667 24.4381 10.02 24.4781 10.22C24.5581 10.6333 24.6915 10.94 24.8781 11.14C25.0781 11.3267 25.3715 11.42 25.7581 11.42C25.9448 11.42 26.2248 11.3733 26.5981 11.28C26.8248 11.2133 27.0048 11.18 27.1381 11.18C27.3115 11.18 27.4448 11.24 27.5381 11.36C27.6315 11.48 27.6781 11.64 27.6781 11.84C27.6781 12.2 27.4448 12.5 26.9781 12.74C26.5115 12.9667 25.9581 13.08 25.3181 13.08C24.9181 13.08 24.5248 12.9867 24.1381 12.8C23.7515 12.6 23.4248 12.36 23.1581 12.08C23.1048 12.0533 23.0248 11.9067 22.9181 11.64C22.8248 11.3733 22.7315 11.08 22.6381 10.76C22.5981 10.6 22.5781 10.2133 22.5781 9.6C22.5781 9.01333 22.6181 8 22.6981 6.56L22.7181 6.12C22.6248 6.12 22.4515 6.11333 22.1981 6.1C21.9448 6.07333 21.7581 6.05333 21.6381 6.04ZM30.5186 0.299999C30.7719 0.299999 30.9986 0.366666 31.1986 0.5C31.4119 0.633333 31.5386 0.866666 31.5786 1.2C31.7386 2.25333 31.8386 3.30667 31.8786 4.36C31.9319 5.4 31.9586 6.58 31.9586 7.9C31.9586 8.46 31.9119 9.48 31.8186 10.96C32.4053 11.0133 32.8586 11.04 33.1786 11.04C33.4053 11.04 33.9186 11.0067 34.7186 10.94C35.1853 10.8733 35.5919 10.84 35.9386 10.84C36.2586 10.84 36.5519 10.8733 36.8186 10.94C37.0853 10.9933 37.3586 11.0867 37.6386 11.22C37.9186 11.38 38.0586 11.6267 38.0586 11.96C38.0586 12.2267 37.9719 12.4667 37.7986 12.68C37.6386 12.8933 37.4453 13 37.2186 13C37.0586 13 36.8053 12.9733 36.4586 12.92C35.8319 12.8267 35.2319 12.78 34.6586 12.78C34.4719 12.78 34.2586 12.7933 34.0186 12.82C33.7919 12.8333 33.6253 12.84 33.5186 12.84C33.1986 12.88 32.8786 12.9 32.5586 12.9C31.9053 12.9 31.3186 12.8667 30.7986 12.8C30.5319 12.7733 30.2653 12.6733 29.9986 12.5C29.7319 12.3133 29.5986 12.0467 29.5986 11.7C29.5986 11.5 29.6253 10.9867 29.6786 10.16C29.7719 8.78667 29.8186 7.74 29.8186 7.02C29.8186 6.46 29.7919 5.87333 29.7386 5.26C29.6853 4.64667 29.6519 4.26 29.6386 4.1C29.5186 2.96667 29.4586 2.03333 29.4586 1.3C29.4586 0.953333 29.5386 0.7 29.6986 0.539999C29.8719 0.379999 30.1453 0.299999 30.5186 0.299999ZM47.0963 6.58C47.2029 6.76667 47.2896 7.04 47.3563 7.4C47.4229 7.74667 47.4563 8.06 47.4563 8.34C47.4563 8.7 47.4163 9.1 47.3363 9.54C47.2563 9.98 47.1829 10.32 47.1163 10.56C46.1963 12.24 44.8363 13.08 43.0363 13.08C42.3696 13.08 41.6896 12.86 40.9963 12.42C40.3029 11.98 39.8229 11.4733 39.5563 10.9C39.1963 9.76667 39.0163 9.04 39.0163 8.72C39.0163 8.18667 39.1296 7.62 39.3563 7.02C39.5963 6.42 39.8963 5.9 40.2563 5.46C40.4963 5.15333 40.9096 4.89333 41.4963 4.68C42.0829 4.45333 42.6163 4.34 43.0963 4.34C44.0296 4.34 44.8163 4.52 45.4563 4.88C46.1096 5.22667 46.6563 5.79333 47.0963 6.58ZM45.3563 9.8C45.4229 9.66667 45.4563 9.22 45.4563 8.46C45.4563 8.07333 45.3829 7.69333 45.2363 7.32C45.1029 6.94667 44.9029 6.62667 44.6363 6.36C44.6096 6.33333 44.5363 6.29333 44.4163 6.24C44.2963 6.17333 44.1296 6.11333 43.9163 6.06C43.7163 5.99333 43.4829 5.96 43.2163 5.96C42.4696 5.96 41.9229 6.26 41.5763 6.86C41.2296 7.46 41.0563 8.14 41.0563 8.9C41.0563 9.02 41.0963 9.26667 41.1763 9.64C41.2563 10.0133 41.3163 10.2533 41.3563 10.36C41.4629 10.5467 41.6763 10.7667 41.9963 11.02C42.3296 11.26 42.6896 11.38 43.0763 11.38C43.6763 11.38 44.1496 11.24 44.4963 10.96C44.8563 10.6667 45.1429 10.28 45.3563 9.8ZM54.0125 7.86C54.0525 7.75333 54.1925 7.36667 54.4325 6.7C54.6858 6.03333 54.9192 5.52667 55.1325 5.18C55.4792 4.63333 55.7858 4.36 56.0525 4.36C56.4258 4.36 56.7125 4.43333 56.9125 4.58C57.1125 4.71333 57.2125 4.90667 57.2125 5.16C57.2125 5.28 57.1592 5.44667 57.0525 5.66C56.9592 5.87333 56.9058 6 56.8925 6.04C56.3592 7.21333 55.8792 8.47333 55.4525 9.82L55.0325 11.38C54.8725 11.8867 54.5992 12.3 54.2125 12.62C53.8258 12.9267 53.3725 13.08 52.8525 13.08C52.3858 13.08 51.9525 12.8667 51.5525 12.44C51.3125 12.0667 51.0592 11.5933 50.7925 11.02C50.5392 10.4467 50.3192 9.88667 50.1325 9.34L49.4325 7.24C49.2858 6.82667 49.1658 6.47333 49.0725 6.18C48.9925 5.88667 48.9525 5.62 48.9525 5.38C48.9392 5.1 49.0192 4.87333 49.1925 4.7C49.3658 4.52667 49.6058 4.44 49.9125 4.44C50.2592 4.44 50.5058 4.51333 50.6525 4.66C50.7992 4.79333 50.9325 5.00667 51.0525 5.3C51.1058 5.60667 51.2525 6.23333 51.4925 7.18L51.6325 7.74C51.7525 8.19333 51.9058 8.65333 52.0925 9.12C52.2792 9.58667 52.4658 10.0333 52.6525 10.46C52.6258 10.3933 52.7192 10.6133 52.9325 11.12C53.0658 10.7333 53.2192 10.26 53.3925 9.7L54.0125 7.86ZM58.4703 8.48C58.4703 8 58.557 7.55333 58.7303 7.14C58.9036 6.71333 59.157 6.27333 59.4903 5.82C59.8236 5.36667 60.2836 5.01333 60.8703 4.76C61.457 4.49333 62.097 4.36 62.7903 4.36C63.3236 4.36 63.837 4.47333 64.3303 4.7C64.837 4.91333 65.2903 5.18 65.6903 5.5C65.7436 5.59333 65.837 5.76667 65.9703 6.02C66.1036 6.26 66.197 6.48 66.2503 6.68C66.317 6.88 66.3503 7.08667 66.3503 7.3C66.3503 8.19333 66.0236 8.79333 65.3703 9.1C64.717 9.39333 63.8903 9.54 62.8903 9.54C61.8903 9.54 61.077 9.47333 60.4503 9.34C60.477 9.59333 60.5436 9.84667 60.6503 10.1C60.757 10.3533 60.8836 10.5467 61.0303 10.68C61.297 10.9333 61.557 11.1 61.8103 11.18C62.077 11.2467 62.4303 11.28 62.8703 11.28C63.537 11.28 64.057 11.1533 64.4303 10.9C64.777 10.6733 65.0436 10.56 65.2303 10.56C65.4836 10.56 65.677 10.64 65.8103 10.8C65.9436 10.9467 66.0103 11.14 66.0103 11.38C66.0103 11.8867 65.6836 12.3 65.0303 12.62C64.3903 12.94 63.6636 13.1 62.8503 13.1C62.2103 13.1 61.577 12.9867 60.9503 12.76C60.3236 12.5333 59.8236 12.2133 59.4503 11.8C59.197 11.3733 58.9703 10.8533 58.7703 10.24C58.5703 9.62667 58.4703 9.04 58.4703 8.48ZM62.8703 6C62.577 6 62.2703 6.05333 61.9503 6.16C61.6436 6.25333 61.4036 6.4 61.2303 6.6C61.017 6.82667 60.857 7.03333 60.7503 7.22C60.657 7.40667 60.597 7.64 60.5703 7.92C60.717 7.92 60.857 7.92667 60.9903 7.94C61.1236 7.95333 61.2503 7.96667 61.3703 7.98C61.957 8.03333 62.397 8.06 62.6903 8.06C63.277 8.06 63.7236 7.97333 64.0303 7.8C64.3503 7.62667 64.5103 7.39333 64.5103 7.1C64.5103 6.82 64.3303 6.56667 63.9703 6.34C63.6236 6.11333 63.257 6 62.8703 6ZM71.2388 12.2C71.2388 12.4267 71.1521 12.6267 70.9788 12.8C70.8054 12.9733 70.5921 13.06 70.3388 13.06C69.9388 13.06 69.6454 12.9867 69.4588 12.84C69.2721 12.68 69.1788 12.3933 69.1788 11.98C69.1788 11.4867 69.1654 10.84 69.1388 10.04C69.1121 9.37333 69.0988 8.81333 69.0988 8.36C69.0988 8.14667 69.1121 7.86667 69.1388 7.52C69.1654 7.2 69.1788 6.96 69.1788 6.8C69.1388 6.54667 69.0388 6.34 68.8788 6.18C68.7188 6.00667 68.5121 5.92 68.2588 5.92C68.1388 5.92 68.0388 5.86667 67.9588 5.76C67.8788 5.64 67.8388 5.52 67.8388 5.4C67.8388 5.09333 67.9588 4.86 68.1988 4.7C68.4521 4.54 68.7521 4.46 69.0988 4.46C69.8188 4.46 70.3188 4.88667 70.5988 5.74C70.9454 5.34 71.3388 5.02 71.7788 4.78C72.2321 4.52667 72.6654 4.4 73.0788 4.4C73.5721 4.4 74.0188 4.53333 74.4188 4.8C74.8321 5.06667 75.0388 5.42667 75.0388 5.88C75.0388 6.13333 74.9254 6.39333 74.6988 6.66C74.4854 6.92667 74.2654 7.06 74.0388 7.06C73.9188 7.06 73.8121 7.03333 73.7188 6.98C73.6388 6.91333 73.5388 6.82 73.4188 6.7C73.2854 6.56667 73.1721 6.47333 73.0788 6.42C72.9854 6.35333 72.8788 6.32 72.7588 6.32C72.5454 6.32 72.3454 6.35333 72.1588 6.42C71.9721 6.48667 71.8454 6.56667 71.7788 6.66C71.5654 6.99333 71.4054 7.29333 71.2988 7.56C71.2054 7.82667 71.1588 8.11333 71.1588 8.42C71.1588 8.64667 71.1521 8.82667 71.1388 8.96L71.1188 10.1C71.1188 10.2733 71.1254 10.4667 71.1388 10.68C71.1521 10.8933 71.1654 11.0533 71.1788 11.16C71.2188 11.52 71.2388 11.8667 71.2388 12.2Z" fill="#9A10C0"/>
</svg>
